<svg width="199" height="58" viewBox="0 0 199 58" fill="none" xmlns="http://www.w3.org/2000/svg">
<path d="M20.0126 39.2704C20.0126 37.4767 21.2695 34.7861 22.114 33.3741L28.5754 22.4593V22.383L28.5951 22.4211L28.6147 22.383V22.4021L34.3102 12.7848L26.749 0L0 45.014H22.173C22.1533 44.9758 22.1337 44.9567 22.114 44.9186C20.7589 43.7164 20.0126 41.9037 20.0126 39.2704Z" fill="#54C0E8"/>
<path d="M45.761 32.4579L42.2651 26.2944H30.8939L35.0967 33.3738C35.9412 34.7858 37.1982 37.4955 37.1982 39.2701C37.1982 44.4031 34.3308 46.4639 29.7548 46.6738C29.3227 46.712 28.871 46.731 28.38 46.731C27.6141 46.731 26.8678 46.6738 26.1608 46.5402C24.6289 46.3303 23.3327 45.8533 22.3507 45.0519C22.3115 45.0328 22.2525 44.9946 22.2132 44.9755C22.1936 44.9564 22.174 44.9374 22.1347 44.9374C22.1347 44.9564 22.1543 44.9755 22.1543 44.9755C23.9612 50.0704 28.7336 52.1121 34.6058 52.1121C41.9902 52.1121 47.9999 47.3035 47.9999 39.48C47.9606 37.0375 46.9982 34.4233 45.761 32.4579Z" fill="#003DA6"/>
<path d="M67.9793 31.7311L71.095 23.2041H74.1235L69.6973 35.1045C68.9693 37.1659 67.7463 38.1967 66.0574 38.1967H62.6213V35.1357H65.9991C66.1739 35.1357 66.3195 35.1045 66.4359 35.042L60.7285 23.2353H64.0481L67.9793 31.7311Z" fill="#003DA6"/>
<path d="M85.3914 27.0454V38.1649H82.5959V29.919H78.3736V38.1337H75.5781V27.0142H85.3914V27.0454Z" fill="#003DA6"/>
<path d="M95.6131 28.483V27.0462H98.4086V38.1657H95.6131V36.6977H95.5258C95.2055 37.2287 94.7396 37.666 94.1572 37.9783C93.5748 38.2907 92.905 38.4781 92.177 38.4781C90.7502 38.4781 89.5854 37.9471 88.6536 36.8539C87.7218 35.7607 87.2559 34.3551 87.2559 32.6372C87.2559 30.9193 87.7218 29.4825 88.6245 28.3893C89.5563 27.2649 90.7211 26.7339 92.177 26.7339C92.905 26.7339 93.5457 26.8901 94.1281 27.2336C94.7104 27.546 95.1763 27.9833 95.4967 28.5143H95.6131V28.483ZM90.8375 34.7924C91.3617 35.3546 92.0314 35.6357 92.8468 35.6357C93.6621 35.6357 94.3319 35.3546 94.856 34.7612C95.3802 34.1677 95.6131 33.4493 95.6131 32.606C95.6131 31.7314 95.3511 31.013 94.8269 30.4508C94.3028 29.8573 93.633 29.5762 92.8468 29.5762C92.0314 29.5762 91.3617 29.8573 90.8375 30.4196C90.3134 30.9818 90.0513 31.7314 90.0513 32.606C90.0804 33.4806 90.3425 34.1989 90.8375 34.7924Z" fill="#003DA6"/>
<path d="M121.238 36.8217C120.219 37.9461 118.879 38.5083 117.191 38.5083C115.531 38.5083 114.191 37.9461 113.143 36.8217C112.124 35.6972 111.6 34.2917 111.6 32.605C111.6 30.9183 112.124 29.5128 113.143 28.3883C114.162 27.2639 115.502 26.7017 117.191 26.7017C118.85 26.7017 120.19 27.2639 121.238 28.3883C122.257 29.5128 122.781 30.9183 122.781 32.605C122.752 34.2917 122.257 35.6972 121.238 36.8217ZM117.191 35.5723C118.006 35.5723 118.647 35.2912 119.171 34.7289C119.695 34.1667 119.957 33.4483 119.957 32.6362C119.957 31.7929 119.695 31.0745 119.2 30.5123C118.676 29.9501 118.035 29.6689 117.191 29.6689C116.375 29.6689 115.705 29.9501 115.181 30.5123C114.657 31.0745 114.424 31.7929 114.424 32.6362C114.424 33.4796 114.686 34.198 115.181 34.7602C115.705 35.2912 116.375 35.5723 117.191 35.5723Z" fill="#003DA6"/>
<path d="M132.713 32.324V32.4177C133.295 32.6364 133.732 32.9487 134.023 33.4172C134.314 33.8858 134.46 34.4167 134.46 34.979C134.46 35.8223 134.169 36.5719 133.615 37.1966C133.062 37.8213 132.276 38.1337 131.286 38.1337H124.646V27.0142H130.849C131.868 27.0142 132.654 27.2953 133.178 27.8887C133.732 28.4822 133.994 29.1693 133.994 29.9814C134.023 31.1059 133.586 31.8868 132.713 32.324ZM130.325 29.5129H127.471V31.3558H130.325C130.616 31.3558 130.82 31.2621 130.965 31.0747C131.111 30.8872 131.198 30.6686 131.198 30.4187C131.198 30.1689 131.111 29.9814 130.965 29.794C130.82 29.6066 130.616 29.5129 130.325 29.5129ZM127.471 35.6974H130.703C130.995 35.6974 131.227 35.6037 131.402 35.4163C131.577 35.2289 131.664 34.979 131.664 34.7291C131.664 34.4792 131.577 34.2606 131.402 34.0732C131.227 33.8858 130.995 33.7921 130.703 33.7921H127.471V35.6974Z" fill="#003DA6"/>
<path d="M145.728 36.8217C144.709 37.9461 143.37 38.5083 141.681 38.5083C140.021 38.5083 138.681 37.9461 137.633 36.8217C136.614 35.6972 136.09 34.2917 136.09 32.605C136.09 30.9183 136.614 29.5128 137.633 28.3883C138.652 27.2639 139.992 26.7017 141.681 26.7017C143.341 26.7017 144.68 27.2639 145.728 28.3883C146.748 29.5128 147.272 30.9183 147.272 32.605C147.272 34.2917 146.748 35.6972 145.728 36.8217ZM141.681 35.5723C142.496 35.5723 143.137 35.2912 143.661 34.7289C144.185 34.1667 144.447 33.4483 144.447 32.6362C144.447 31.7929 144.185 31.0745 143.69 30.5123C143.166 29.9501 142.525 29.6689 141.681 29.6689C140.865 29.6689 140.196 29.9501 139.672 30.5123C139.147 31.0745 138.914 31.7929 138.914 32.6362C138.914 33.4796 139.177 34.198 139.672 34.7602C140.196 35.2912 140.865 35.5723 141.681 35.5723Z" fill="#003DA6"/>
<path d="M155.57 31.8565V27.0464H158.365V38.1659H155.57V34.6989H151.872C150.911 34.6989 150.154 34.4177 149.6 33.8243C149.047 33.2308 148.756 32.45 148.756 31.4505V27.0464H151.551V31.0444C151.551 31.6066 151.843 31.8565 152.396 31.8565H155.57Z" fill="#003DA6"/>
<path d="M168.12 31.0756V27.0464H170.916V38.1659H168.12V33.9492H163.723V38.1659H160.928V27.0464H163.723V31.0756H168.12Z" fill="#003DA6"/>
<path d="M176.274 30.3572H178.924C180.059 30.3572 180.933 30.7321 181.632 31.5129C182.302 32.2938 182.651 33.1996 182.651 34.2303C182.651 35.2923 182.302 36.2293 181.632 37.0102C180.962 37.7911 180.059 38.1659 178.924 38.1659H173.449V27.0464H176.245V30.3572H176.274ZM176.274 35.4172H178.778C179.098 35.4172 179.39 35.2923 179.593 35.0737C179.797 34.8238 179.914 34.5427 179.914 34.1991C179.914 33.8868 179.797 33.5744 179.593 33.3558C179.39 33.1059 179.128 33.0122 178.778 33.0122H176.274V35.4172ZM183.612 38.1659V27.0464H186.407V38.1659H183.612Z" fill="#003DA6"/>
<path d="M108.368 46.5366V49.4102H104.99V57.6249H102.194V49.4102H98.8164V46.5366H108.368Z" fill="#003DA6"/>
<path d="M135.041 46.5371V57.6566H132.216V49.9104L129.508 57.6254H127.353L124.674 49.9417V57.6254H121.879V46.5059H126.218L128.489 53.1901L130.731 46.5059H135.041V46.5371Z" fill="#003DA6"/>
<path d="M140.37 49.848H143.019C144.155 49.848 145.029 50.2228 145.727 51.0036C146.397 51.7845 146.747 52.6903 146.747 53.721C146.747 54.783 146.397 55.7201 145.727 56.5009C145.058 57.2818 144.155 57.6566 143.019 57.6566H137.545V46.5371H140.34V49.848H140.37ZM140.37 54.908H142.874C143.194 54.908 143.485 54.783 143.689 54.5644C143.893 54.3145 144.009 54.0334 144.009 53.6898C144.009 53.3775 143.893 53.0651 143.689 52.8465C143.485 52.5966 143.223 52.5029 142.874 52.5029H140.37V54.908ZM147.708 57.6254V46.5059H150.503V57.6254H147.708Z" fill="#003DA6"/>
<path d="M116.9 54.1269C116.493 54.8453 115.561 55.3138 114.6 55.2514C113.173 55.1889 112.241 54.2206 112.096 53.0962H119.9C120.278 49.1606 118.065 46.1934 114.629 46.1934C111.455 46.1934 109.213 48.7858 109.213 52.0967C109.213 55.2201 111.106 58 114.6 58C116.522 58 118.211 57.1255 119.201 55.5637L116.9 54.1269ZM114.629 48.9108C115.823 48.9108 116.784 49.5979 117.075 50.7536H112.125C112.416 49.6292 113.377 48.9108 114.629 48.9108Z" fill="#003DA6"/>
<path d="M195.959 34.6352C195.551 35.3536 194.62 35.8222 193.659 35.7597C192.232 35.6972 191.3 34.7289 191.154 33.6045H198.958C199.337 29.6689 197.124 26.7017 193.688 26.7017C190.514 26.7017 188.271 29.2941 188.271 32.605C188.271 35.7284 190.164 38.5083 193.659 38.5083C195.58 38.5083 197.269 37.6338 198.259 36.072L195.959 34.6352ZM193.688 29.4191C194.882 29.4191 195.843 30.1062 196.134 31.2619H191.183C191.475 30.1375 192.465 29.4191 193.688 29.4191Z" fill="#003DA6"/>
<path d="M107.872 38.1649L103.766 32.2928V38.1649H100.971V27.0454H103.766V32.2303L107.668 27.0454H110.93L107.028 32.1054L111.279 38.1337H107.872V38.1649Z" fill="#003DA6"/>
<path d="M71.0071 52.1587C70.4539 53.7829 69.0561 54.8761 67.1925 54.8761C64.5426 54.8761 62.9993 52.6897 62.9993 50.191C62.9993 47.661 64.5718 45.537 67.1634 45.5058C69.0853 45.4745 70.4539 46.6302 71.0071 48.2232L73.6279 46.599C72.5505 44.1315 70.2209 42.3823 67.1925 42.3823C62.8246 42.3823 60 45.9431 60 50.2222C60 54.5013 62.8246 57.9684 67.1925 57.9684C70.2792 57.9684 72.6087 56.2505 73.657 53.7829L71.0071 52.1587Z" fill="#003DA6"/>
<path d="M93.021 49.0669C94.1275 49.0669 95.0302 49.7853 95.3505 50.7224L97.7966 49.1606C97.0103 47.3803 95.2341 46.1934 93.021 46.1934C89.5849 46.1934 87.4883 48.8171 87.4883 52.0342C87.4883 55.3763 89.5849 57.9688 93.021 57.9688C95.2341 57.9688 97.0103 56.7819 97.7966 54.8766L95.3505 53.3148C95.0302 54.3768 94.1275 54.9703 93.021 54.9703C91.3612 54.9703 90.3711 53.6584 90.3711 52.003C90.3711 50.4725 91.3612 49.0669 93.021 49.0669Z" fill="#003DA6"/>
<path d="M83.0615 52.501C83.0615 54.2813 82.1879 54.9997 80.6154 54.9997C79.0721 54.9997 78.4024 54.2813 78.4024 52.501V46.5664H75.5195V52.501C75.5195 56.0617 77.4123 57.967 79.9457 57.967C81.4017 57.967 82.5956 57.2486 83.2653 56.1866V57.6234H85.8278V46.5664H83.0615V52.501Z" fill="#003DA6"/>
</svg>
